<svg width="24" height="24" viewBox="0 0 24 24" fill="none" xmlns="http://www.w3.org/2000/svg">
<path d="M3 4C3 2.34315 4.34315 1 6 1H18C19.6569 1 21 2.34315 21 4V9.98913C22.1385 10.3947 23 11.4762 23 12.819V20C23 21.6569 21.6569 23 20 23H4C2.34315 23 1 21.6569 1 20V12.819C1 11.4762 1.86148 10.3947 3 9.98913V4ZM19 4C19 3.44772 18.5523 3 18 3H6C5.44772 3 5 3.44772 5 4V9.99052L11.6697 12.3249C11.8835 12.3998 12.1165 12.3998 12.3303 12.3249L19 9.99052V4ZM21 12.819C21 12.1301 20.3198 11.6475 19.6697 11.8751L12.9911 14.2126C12.3494 14.4372 11.6506 14.4372 11.0089 14.2126L4.33035 11.8751C3.68018 11.6475 3 12.1301 3 12.819V20C3 20.5523 3.44772 21 4 21H20C20.5523 21 21 20.5523 21 20V12.819ZM8 4.5H15C15.5523 4.5 16 4.94772 16 5.5C16 6.05228 15.5523 6.5 15 6.5H8C7.44772 6.5 7 6.05228 7 5.5C7 4.94772 7.44772 4.5 8 4.5ZM8 8C7.44772 8 7 8.44772 7 9C7 9.55228 7.44772 10 8 10H12C12.5523 10 13 9.55228 13 9C13 8.44772 12.5523 8 12 8H8Z" fill="#522911"/>
</svg>
