<svg width="21" height="21" viewBox="0 0 21 21" fill="none" xmlns="http://www.w3.org/2000/svg">
<path d="M18.2256 1.06066C19.5924 2.4275 19.5924 4.64358 18.2256 6.01041L7.0542 17.1818C6.71968 17.5163 6.31079 17.767 5.86091 17.9133L2.94496 18.8619C1.39037 19.3676 -0.0813288 17.8959 0.42437 16.3413L1.37292 13.4253C1.51927 12.9755 1.76993 12.5666 2.10445 12.2321L13.2758 1.06066C14.6427 -0.30617 16.8588 -0.306172 18.2256 1.06066ZM14.6901 2.47488L3.51867 13.6463C3.40716 13.7578 3.3236 13.8941 3.27482 14.044L2.32627 16.96L5.24222 16.0114C5.39218 15.9626 5.52848 15.8791 5.63999 15.7676L16.8114 4.5962C17.3972 4.01041 17.3972 3.06066 16.8114 2.47488C16.2256 1.88909 15.2758 1.88909 14.6901 2.47488ZM8.99998 19C8.4477 19 7.99998 19.4477 7.99998 20C7.99998 20.5523 8.4477 21 8.99998 21H20C20.5523 21 21 20.5523 21 20C21 19.4477 20.5523 19 20 19H8.99998Z" fill="white"/>
</svg>
