<svg width="24" height="24" viewBox="0 0 24 24" fill="none" xmlns="http://www.w3.org/2000/svg">
<path d="M9 1C7.89543 1 7 1.89543 7 3V4H5H3C2.44772 4 2 4.44772 2 5C2 5.55228 2.44772 6 3 6H4V20C4 21.6569 5.34315 23 7 23H17C18.6569 23 20 21.6569 20 20V6H21C21.5523 6 22 5.55228 22 5C22 4.44772 21.5523 4 21 4H19H17V3C17 1.89543 16.1046 1 15 1H9ZM15 4H9V3H15V4ZM8 6H16H18V20C18 20.5523 17.5523 21 17 21H7C6.44772 21 6 20.5523 6 20V6H8ZM11 11C11 10.4477 10.5523 10 10 10C9.44772 10 9 10.4477 9 11V16C9 16.5523 9.44771 17 10 17C10.5523 17 11 16.5523 11 16V11ZM14 10C14.5523 10 15 10.4477 15 11V16C15 16.5523 14.5523 17 14 17C13.4477 17 13 16.5523 13 16V11C13 10.4477 13.4477 10 14 10Z" fill="white"/>
</svg>
