<svg width="24" height="24" viewBox="0 0 24 24" fill="none" xmlns="http://www.w3.org/2000/svg">
<path d="M20.1422 1.29289C19.9546 1.10536 19.7003 1 19.4351 1C19.1698 1 18.9155 1.10536 18.728 1.29289L10.4142 9.6066C10.2746 9.7462 10.1795 9.924 10.1408 10.1176L9.43366 13.6531C9.36809 13.981 9.47072 14.3199 9.70714 14.5563C9.94356 14.7928 10.2825 14.8954 10.6104 14.8298L14.1459 14.1227C14.3395 14.084 14.5173 13.9888 14.6569 13.8492L22.9706 5.53553C23.3611 5.14501 23.3611 4.51184 22.9706 4.12132L20.1422 1.29289ZM12.0426 10.8067L19.4351 3.41421L20.8493 4.82843L13.4568 12.2209L11.689 12.5745L12.0426 10.8067ZM4 5C4 4.44772 4.44772 4 5 4H12C12.5523 4 13 3.55228 13 3C13 2.44772 12.5523 2 12 2H5C3.34315 2 2 3.34315 2 5V19C2 20.6569 3.34315 22 5 22H19C20.6569 22 22 20.6569 22 19V12C22 11.4477 21.5523 11 21 11C20.4477 11 20 11.4477 20 12V19C20 19.5523 19.5523 20 19 20H5C4.44772 20 4 19.5523 4 19V5Z" fill="#522911" fill-opacity="0.5"/>
</svg>
