<svg width="24" height="24" viewBox="0 0 24 24" fill="none" xmlns="http://www.w3.org/2000/svg">
<path d="M9 0C7.89543 0 7 0.895431 7 2H6C4.34315 2 3 3.34315 3 5V20C3 21.6569 4.34315 23 6 23H18C19.6569 23 21 21.6569 21 20V5C21 3.34315 19.6569 2 18 2H17C17 0.895431 16.1046 0 15 0H9ZM17 4H18C18.5523 4 19 4.44771 19 5V20C19 20.5523 18.5523 21 18 21H6C5.44772 21 5 20.5523 5 20V5C5 4.44772 5.44772 4 6 4H7C7 5.10457 7.89543 6 9 6H15C16.1046 6 17 5.10457 17 4ZM9 2H15V4H9V2ZM12 14C10.8954 14 10 13.1046 10 12C10 10.8954 10.8954 10 12 10C13.1046 10 14 10.8954 14 12C14 13.1046 13.1046 14 12 14ZM12 16C12.7418 16 13.4365 15.7981 14.032 15.4462L16.2929 17.7071C16.6834 18.0976 17.3166 18.0976 17.7071 17.7071C18.0976 17.3166 18.0976 16.6834 17.7071 16.2929L15.4462 14.032C15.7981 13.4365 16 12.7418 16 12C16 9.79086 14.2091 8 12 8C9.79086 8 8 9.79086 8 12C8 14.2091 9.79086 16 12 16Z" fill="#522911"/>
</svg>
