<svg width="280" height="154" viewBox="0 0 280 154" fill="none" xmlns="http://www.w3.org/2000/svg">
<path d="M230.294 93.75C254.456 93.75 274.044 74.1625 274.044 50C274.044 25.8375 254.456 6.25 230.294 6.25C206.131 6.25 186.544 25.8375 186.544 50C186.544 74.1625 206.131 93.75 230.294 93.75Z" fill="url(#paint0_radial_4_203)"/>
<path d="M230.294 93.75C254.456 93.75 274.044 74.1625 274.044 50C274.044 25.8375 254.456 6.25 230.294 6.25C206.131 6.25 186.544 25.8375 186.544 50C186.544 74.1625 206.131 93.75 230.294 93.75Z" fill="url(#paint1_radial_4_203)"/>
<path d="M230.294 93.75C254.456 93.75 274.044 74.1625 274.044 50C274.044 25.8375 254.456 6.25 230.294 6.25C206.131 6.25 186.544 25.8375 186.544 50C186.544 74.1625 206.131 93.75 230.294 93.75Z" fill="url(#paint2_radial_4_203)"/>
<path d="M230.294 93.75C254.456 93.75 274.044 74.1625 274.044 50C274.044 25.8375 254.456 6.25 230.294 6.25C206.131 6.25 186.544 25.8375 186.544 50C186.544 74.1625 206.131 93.75 230.294 93.75Z" fill="url(#paint3_radial_4_203)"/>
<g filter="url(#filter0_ii_4_203)">
<path d="M186.634 47.1563C186.562 48.2891 186.533 49.4243 186.547 50.5594C187.632 50.1389 188.703 49.6845 189.759 49.1969C193.188 47.6219 197.669 45.1594 201.816 41.6188C204.847 39.0313 207.722 35.85 209.866 31.9969C212.366 33.3 214.75 34.6531 217.028 36.0406C211.647 42.367 207.327 49.5232 204.234 57.2313C201.619 63.7459 199.939 70.5984 199.247 77.5844C199.141 78.6813 199.072 79.6906 199.028 80.6C199.997 81.5938 201.019 82.5406 202.081 83.4406C202.083 81.5852 202.174 79.7309 202.356 77.8844C202.834 72.925 204.075 66.0406 207.138 58.3938C210.161 50.8576 214.408 43.8721 219.706 37.7188C222.863 39.7536 225.921 41.9362 228.872 44.2594C226.88 46.49 225.184 48.9677 223.825 51.6313C217.094 64.7438 218.041 82.3188 227.781 93.6781C229.226 93.7603 230.673 93.7717 232.119 93.7125C221.553 83.6563 219.9 66.1094 226.606 53.0563C227.878 50.5781 229.447 48.275 231.303 46.2281C236.982 50.9463 242.19 56.2031 246.856 61.925C251.269 67.3112 255.128 73.128 258.375 79.2875C258.95 80.3844 259.438 81.3813 259.85 82.2563C260.663 81.5125 261.447 80.7375 262.203 79.9313C261.861 79.2296 261.508 78.5327 261.147 77.8406C257.801 71.4937 253.825 65.4999 249.278 59.95C245.091 54.8094 239.903 49.3438 233.534 44.0219C236.554 41.3371 240.119 39.3382 243.984 38.1625C251.6 35.8313 261.344 36.2563 273.172 41.2625C272.915 39.9992 272.602 38.7479 272.234 37.5125C260.828 33.1063 251.047 32.7313 243.069 35.175C238.611 36.5312 234.515 38.8722 231.084 42.025C228.098 39.6598 225.003 37.4355 221.809 35.3594C229.325 27.275 239.684 19.5031 253.975 13.2063C252.9 12.5133 251.794 11.8679 250.663 11.2719C236.775 17.6906 226.588 25.5156 219.125 33.6594C216.625 32.1219 214 30.6281 211.244 29.1906C211.488 28.617 211.713 28.0354 211.919 27.4469C213.669 22.4656 214.153 16.6563 212.641 9.95625C211.656 10.3938 210.691 10.8625 209.747 11.3625C210.944 17.2188 210.45 22.1969 208.972 26.4125C208.81 26.8716 208.635 27.3259 208.447 27.775C204.469 25.8251 200.399 24.0709 196.25 22.5188C195.569 23.3625 194.916 24.2344 194.297 25.1281C198.649 26.723 202.916 28.5442 207.078 30.5844C205.156 33.9938 202.578 36.8594 199.788 39.2406C195.925 42.5375 191.716 44.8594 188.453 46.3594C187.806 46.6563 187.194 46.9219 186.634 47.1563Z" fill="#4D3A45"/>
</g>
<g opacity="0.5">
<path d="M140.235 149C159.565 149 175.235 133.33 175.235 114C175.235 94.67 159.565 79 140.235 79C120.905 79 105.235 94.67 105.235 114C105.235 133.33 120.905 149 140.235 149Z" fill="url(#paint4_radial_4_203)"/>
<path d="M140.235 149C159.565 149 175.235 133.33 175.235 114C175.235 94.67 159.565 79 140.235 79C120.905 79 105.235 94.67 105.235 114C105.235 133.33 120.905 149 140.235 149Z" fill="url(#paint5_radial_4_203)"/>
<path d="M140.235 149C159.565 149 175.235 133.33 175.235 114C175.235 94.67 159.565 79 140.235 79C120.905 79 105.235 94.67 105.235 114C105.235 133.33 120.905 149 140.235 149Z" fill="url(#paint6_radial_4_203)"/>
<path d="M140.235 149C159.565 149 175.235 133.33 175.235 114C175.235 94.67 159.565 79 140.235 79C120.905 79 105.235 94.67 105.235 114C105.235 133.33 120.905 149 140.235 149Z" fill="url(#paint7_radial_4_203)"/>
<g filter="url(#filter1_ii_4_203)">
<path d="M105.308 111.725C105.249 112.631 105.226 113.539 105.238 114.448C106.105 114.111 106.962 113.748 107.808 113.358C110.55 112.098 114.135 110.128 117.453 107.295C119.878 105.225 122.178 102.68 123.893 99.5975C125.893 100.64 127.8 101.723 129.623 102.833C125.318 107.894 121.861 113.619 119.388 119.785C117.295 124.997 115.952 130.479 115.398 136.068C115.313 136.945 115.258 137.753 115.223 138.48C115.998 139.275 116.815 140.033 117.665 140.753C117.666 139.268 117.74 137.785 117.885 136.308C118.268 132.34 119.26 126.833 121.71 120.715C124.129 114.686 127.526 109.098 131.765 104.175C134.29 105.803 136.737 107.549 139.098 109.408C137.504 111.192 136.147 113.174 135.06 115.305C129.675 125.795 130.433 139.855 138.225 148.943C139.381 149.008 140.539 149.017 141.695 148.97C133.243 140.925 131.92 126.888 137.285 116.445C138.303 114.463 139.558 112.62 141.043 110.983C145.585 114.757 149.752 118.963 153.485 123.54C157.015 127.849 160.102 132.502 162.7 137.43C163.16 138.308 163.55 139.105 163.88 139.805C164.53 139.21 165.158 138.59 165.763 137.945C165.488 137.384 165.207 136.826 164.918 136.273C162.241 131.195 159.06 126.4 155.423 121.96C152.073 117.848 147.923 113.475 142.828 109.218C145.243 107.07 148.095 105.471 151.188 104.53C157.28 102.665 165.075 103.005 174.538 107.01C174.332 105.999 174.082 104.998 173.788 104.01C164.663 100.485 156.838 100.185 150.455 102.14C146.889 103.225 143.612 105.098 140.868 107.62C138.479 105.728 136.003 103.948 133.448 102.288C139.46 95.82 147.748 89.6025 159.18 84.565C158.32 84.0106 157.436 83.4943 156.53 83.0175C145.42 88.1525 137.27 94.4125 131.3 100.928C129.3 99.6975 127.2 98.5025 124.995 97.3525C125.19 96.8936 125.37 96.4283 125.535 95.9575C126.935 91.9725 127.323 87.325 126.113 81.965C125.325 82.315 124.553 82.69 123.798 83.09C124.755 87.775 124.36 91.7575 123.178 95.13C123.048 95.4973 122.908 95.8607 122.758 96.22C119.576 94.6601 116.319 93.2567 113 92.015C112.455 92.69 111.933 93.3875 111.438 94.1025C114.92 95.3784 118.333 96.8354 121.663 98.4675C120.125 101.195 118.063 103.488 115.83 105.393C112.74 108.03 109.373 109.888 106.763 111.088C106.245 111.325 105.755 111.538 105.308 111.725Z" fill="#4D3A45"/>
</g>
</g>
<g opacity="0.3">
<path d="M70.1766 100.25C84.6741 100.25 96.4266 88.4975 96.4266 74C96.4266 59.5025 84.6741 47.75 70.1766 47.75C55.6791 47.75 43.9266 59.5025 43.9266 74C43.9266 88.4975 55.6791 100.25 70.1766 100.25Z" fill="url(#paint8_radial_4_203)"/>
<path d="M70.1766 100.25C84.6741 100.25 96.4266 88.4975 96.4266 74C96.4266 59.5025 84.6741 47.75 70.1766 47.75C55.6791 47.75 43.9266 59.5025 43.9266 74C43.9266 88.4975 55.6791 100.25 70.1766 100.25Z" fill="url(#paint9_radial_4_203)"/>
<path d="M70.1766 100.25C84.6741 100.25 96.4266 88.4975 96.4266 74C96.4266 59.5025 84.6741 47.75 70.1766 47.75C55.6791 47.75 43.9266 59.5025 43.9266 74C43.9266 88.4975 55.6791 100.25 70.1766 100.25Z" fill="url(#paint10_radial_4_203)"/>
<path d="M70.1766 100.25C84.6741 100.25 96.4266 88.4975 96.4266 74C96.4266 59.5025 84.6741 47.75 70.1766 47.75C55.6791 47.75 43.9266 59.5025 43.9266 74C43.9266 88.4975 55.6791 100.25 70.1766 100.25Z" fill="url(#paint11_radial_4_203)"/>
<g filter="url(#filter2_ii_4_203)">
<path d="M43.9806 72.2938C43.937 72.9735 43.9195 73.6546 43.9281 74.3356C44.579 74.0833 45.2218 73.8107 45.8556 73.5181C47.9125 72.5731 50.6013 71.0956 53.0894 68.9713C54.9081 67.4188 56.6331 65.51 57.9194 63.1981C59.4194 63.98 60.85 64.7919 62.2169 65.6244C58.9884 69.4202 56.3961 73.7139 54.5406 78.3388C52.9712 82.2476 51.9637 86.3591 51.5481 90.5506C51.4844 91.2088 51.4431 91.8144 51.4169 92.36C51.9981 92.9563 52.6113 93.5244 53.2488 94.0644C53.2496 92.9511 53.3046 91.8385 53.4138 90.7306C53.7006 87.755 54.445 83.6244 56.2825 79.0363C58.0968 74.5146 60.6448 70.3233 63.8238 66.6313C65.7176 67.8521 67.5528 69.1617 69.3231 70.5556C68.1282 71.894 67.1105 73.3806 66.295 74.9788C62.2563 82.8463 62.8244 93.3913 68.6688 100.207C69.5354 100.256 70.4039 100.263 71.2713 100.228C64.9319 94.1938 63.94 83.6656 67.9638 75.8338C68.7269 74.3469 69.6681 72.965 70.7819 71.7369C74.1891 74.5678 77.3143 77.7219 80.1138 81.155C82.7614 84.3867 85.0768 87.8768 87.025 91.5725C87.37 92.2306 87.6625 92.8288 87.91 93.3538C88.3975 92.9075 88.8681 92.4425 89.3219 91.9588C89.1163 91.5378 88.9051 91.1196 88.6881 90.7044C86.6809 86.8962 84.2951 83.2999 81.5669 79.97C79.0544 76.8856 75.9419 73.6063 72.1206 70.4131C73.9323 68.8023 76.0713 67.6029 78.3906 66.8975C82.96 65.4988 88.8063 65.7538 95.9031 68.7575C95.7492 67.9995 95.5615 67.2488 95.3406 66.5075C88.4969 63.8638 82.6281 63.6388 77.8413 65.105C75.1666 65.9187 72.7091 67.3233 70.6506 69.215C68.859 67.7959 67.0019 66.4613 65.0856 65.2156C69.595 60.365 75.8106 55.7019 84.385 51.9238C83.7398 51.508 83.0767 51.1207 82.3975 50.7631C74.065 54.6144 67.9525 59.3094 63.475 64.1956C61.975 63.2731 60.4 62.3769 58.7463 61.5144C58.8927 61.1702 59.0278 60.8212 59.1513 60.4681C60.2013 57.4794 60.4919 53.9938 59.5844 49.9738C58.9938 50.2363 58.4144 50.5175 57.8481 50.8175C58.5663 54.3313 58.27 57.3181 57.3831 59.8475C57.2859 60.1229 57.1809 60.3956 57.0681 60.665C54.6816 59.4951 52.2393 58.4426 49.75 57.5113C49.3413 58.0175 48.9494 58.5406 48.5781 59.0769C51.1897 60.0338 53.7494 61.1265 56.2469 62.3506C55.0938 64.3963 53.5469 66.1156 51.8725 67.5444C49.555 69.5225 47.0294 70.9156 45.0719 71.8156C44.6838 71.9938 44.3163 72.1531 43.9806 72.2938Z" fill="#4D3A45"/>
</g>
</g>
<g opacity="0.1">
<path d="M20.118 61.5C29.7829 61.5 37.618 53.665 37.618 44C37.618 34.335 29.7829 26.5 20.118 26.5C10.453 26.5 2.61795 34.335 2.61795 44C2.61795 53.665 10.453 61.5 20.118 61.5Z" fill="url(#paint12_radial_4_203)"/>
<path d="M20.118 61.5C29.7829 61.5 37.618 53.665 37.618 44C37.618 34.335 29.7829 26.5 20.118 26.5C10.453 26.5 2.61795 34.335 2.61795 44C2.61795 53.665 10.453 61.5 20.118 61.5Z" fill="url(#paint13_radial_4_203)"/>
<path d="M20.118 61.5C29.7829 61.5 37.618 53.665 37.618 44C37.618 34.335 29.7829 26.5 20.118 26.5C10.453 26.5 2.61795 34.335 2.61795 44C2.61795 53.665 10.453 61.5 20.118 61.5Z" fill="url(#paint14_radial_4_203)"/>
<path d="M20.118 61.5C29.7829 61.5 37.618 53.665 37.618 44C37.618 34.335 29.7829 26.5 20.118 26.5C10.453 26.5 2.61795 34.335 2.61795 44C2.61795 53.665 10.453 61.5 20.118 61.5Z" fill="url(#paint15_radial_4_203)"/>
<g filter="url(#filter3_ii_4_203)">
<path d="M2.65376 42.8625C2.6247 43.3156 2.61302 43.7697 2.61876 44.2238C3.05267 44.0555 3.48122 43.8738 3.90376 43.6788C5.27501 43.0487 7.06751 42.0637 8.72626 40.6475C9.93876 39.6125 11.0888 38.34 11.9463 36.7987C12.9463 37.32 13.9 37.8612 14.8113 38.4162C12.6589 40.9468 10.9307 43.8093 9.69376 46.8925C8.64747 49.4984 7.97579 52.2394 7.69876 55.0337C7.65626 55.4725 7.62876 55.8762 7.61126 56.24C7.99876 56.6375 8.40751 57.0163 8.83251 57.3762C8.83306 56.6341 8.86977 55.8924 8.94251 55.1537C9.13376 53.17 9.63001 50.4163 10.855 47.3575C12.0645 44.3431 13.7632 41.5488 15.8825 39.0875C17.1451 39.9014 18.3685 40.7745 19.5488 41.7037C18.7521 42.596 18.0737 43.5871 17.53 44.6525C14.8375 49.8975 15.2163 56.9275 19.1125 61.4712C19.6903 61.5041 20.2693 61.5087 20.8475 61.485C16.6213 57.4625 15.96 50.4438 18.6425 45.2225C19.1513 44.2313 19.7788 43.31 20.5213 42.4913C22.7927 44.3785 24.8762 46.4813 26.7425 48.77C28.5076 50.9245 30.0512 53.2512 31.35 55.715C31.58 56.1537 31.775 56.5525 31.94 56.9025C32.265 56.605 32.5788 56.295 32.8813 55.9725C32.7442 55.6918 32.6034 55.4131 32.4588 55.1362C31.1206 52.5975 29.5301 50.1999 27.7113 47.98C26.0363 45.9237 23.9613 43.7375 21.4138 41.6087C22.6215 40.5348 24.0475 39.7353 25.5938 39.265C28.64 38.3325 32.5375 38.5025 37.2688 40.505C37.1661 39.9997 37.041 39.4992 36.8938 39.005C32.3313 37.2425 28.4188 37.0925 25.2275 38.07C23.4444 38.6125 21.8061 39.5489 20.4338 40.81C19.2393 39.8639 18.0013 38.9742 16.7238 38.1437C19.73 34.91 23.8738 31.8012 29.59 29.2825C29.1599 29.0053 28.7178 28.7472 28.265 28.5087C22.71 31.0762 18.635 34.2062 15.65 37.4637C14.65 36.8487 13.6 36.2512 12.4975 35.6762C12.5951 35.4468 12.6852 35.2142 12.7675 34.9787C13.4675 32.9862 13.6613 30.6625 13.0563 27.9825C12.6625 28.1575 12.2763 28.345 11.8988 28.545C12.3775 30.8875 12.18 32.8787 11.5888 34.565C11.524 34.7486 11.4539 34.9304 11.3788 35.11C9.78776 34.33 8.15956 33.6284 6.50001 33.0075C6.22751 33.345 5.96626 33.6937 5.71876 34.0512C7.45978 34.6892 9.16628 35.4177 10.8313 36.2337C10.0625 37.5975 9.03126 38.7437 7.91501 39.6962C6.37001 41.015 4.68626 41.9437 3.38126 42.5437C3.12251 42.6625 2.87751 42.7688 2.65376 42.8625Z" fill="#4D3A45"/>
</g>
</g>
<defs>
<filter id="filter0_ii_4_203" x="186.543" y="9.88125" width="86.6286" height="83.9435" filterUnits="userSpaceOnUse" color-interpolation-filters="sRGB">
<feFlood flood-opacity="0" result="BackgroundImageFix"/>
<feBlend mode="normal" in="SourceGraphic" in2="BackgroundImageFix" result="shape"/>
<feColorMatrix in="SourceAlpha" type="matrix" values="0 0 0 0 0 0 0 0 0 0 0 0 0 0 0 0 0 0 127 0" result="hardAlpha"/>
<feOffset dy="0.15"/>
<feGaussianBlur stdDeviation="0.0375"/>
<feComposite in2="hardAlpha" operator="arithmetic" k2="-1" k3="1"/>
<feColorMatrix type="matrix" values="0 0 0 0 0.266667 0 0 0 0 0.172549 0 0 0 0 0.25098 0 0 0 1 0"/>
<feBlend mode="normal" in2="shape" result="effect1_innerShadow_4_203"/>
<feColorMatrix in="SourceAlpha" type="matrix" values="0 0 0 0 0 0 0 0 0 0 0 0 0 0 0 0 0 0 127 0" result="hardAlpha"/>
<feOffset dy="-0.15"/>
<feGaussianBlur stdDeviation="0.0375"/>
<feComposite in2="hardAlpha" operator="arithmetic" k2="-1" k3="1"/>
<feColorMatrix type="matrix" values="0 0 0 0 0.356863 0 0 0 0 0.294118 0 0 0 0 0.305882 0 0 0 1 0"/>
<feBlend mode="normal" in2="effect1_innerShadow_4_203" result="effect2_innerShadow_4_203"/>
</filter>
<filter id="filter1_ii_4_203" x="105.235" y="81.89" width="69.3028" height="67.1848" filterUnits="userSpaceOnUse" color-interpolation-filters="sRGB">
<feFlood flood-opacity="0" result="BackgroundImageFix"/>
<feBlend mode="normal" in="SourceGraphic" in2="BackgroundImageFix" result="shape"/>
<feColorMatrix in="SourceAlpha" type="matrix" values="0 0 0 0 0 0 0 0 0 0 0 0 0 0 0 0 0 0 127 0" result="hardAlpha"/>
<feOffset dy="0.15"/>
<feGaussianBlur stdDeviation="0.0375"/>
<feComposite in2="hardAlpha" operator="arithmetic" k2="-1" k3="1"/>
<feColorMatrix type="matrix" values="0 0 0 0 0.266667 0 0 0 0 0.172549 0 0 0 0 0.25098 0 0 0 1 0"/>
<feBlend mode="normal" in2="shape" result="effect1_innerShadow_4_203"/>
<feColorMatrix in="SourceAlpha" type="matrix" values="0 0 0 0 0 0 0 0 0 0 0 0 0 0 0 0 0 0 127 0" result="hardAlpha"/>
<feOffset dy="-0.15"/>
<feGaussianBlur stdDeviation="0.0375"/>
<feComposite in2="hardAlpha" operator="arithmetic" k2="-1" k3="1"/>
<feColorMatrix type="matrix" values="0 0 0 0 0.356863 0 0 0 0 0.294118 0 0 0 0 0.305882 0 0 0 1 0"/>
<feBlend mode="normal" in2="effect1_innerShadow_4_203" result="effect2_innerShadow_4_203"/>
</filter>
<filter id="filter2_ii_4_203" x="43.926" y="49.8988" width="51.9771" height="50.4261" filterUnits="userSpaceOnUse" color-interpolation-filters="sRGB">
<feFlood flood-opacity="0" result="BackgroundImageFix"/>
<feBlend mode="normal" in="SourceGraphic" in2="BackgroundImageFix" result="shape"/>
<feColorMatrix in="SourceAlpha" type="matrix" values="0 0 0 0 0 0 0 0 0 0 0 0 0 0 0 0 0 0 127 0" result="hardAlpha"/>
<feOffset dy="0.15"/>
<feGaussianBlur stdDeviation="0.0375"/>
<feComposite in2="hardAlpha" operator="arithmetic" k2="-1" k3="1"/>
<feColorMatrix type="matrix" values="0 0 0 0 0.266667 0 0 0 0 0.172549 0 0 0 0 0.25098 0 0 0 1 0"/>
<feBlend mode="normal" in2="shape" result="effect1_innerShadow_4_203"/>
<feColorMatrix in="SourceAlpha" type="matrix" values="0 0 0 0 0 0 0 0 0 0 0 0 0 0 0 0 0 0 127 0" result="hardAlpha"/>
<feOffset dy="-0.15"/>
<feGaussianBlur stdDeviation="0.0375"/>
<feComposite in2="hardAlpha" operator="arithmetic" k2="-1" k3="1"/>
<feColorMatrix type="matrix" values="0 0 0 0 0.356863 0 0 0 0 0.294118 0 0 0 0 0.305882 0 0 0 1 0"/>
<feBlend mode="normal" in2="effect1_innerShadow_4_203" result="effect2_innerShadow_4_203"/>
</filter>
<filter id="filter3_ii_4_203" x="2.61734" y="27.9075" width="34.6514" height="33.6674" filterUnits="userSpaceOnUse" color-interpolation-filters="sRGB">
<feFlood flood-opacity="0" result="BackgroundImageFix"/>
<feBlend mode="normal" in="SourceGraphic" in2="BackgroundImageFix" result="shape"/>
<feColorMatrix in="SourceAlpha" type="matrix" values="0 0 0 0 0 0 0 0 0 0 0 0 0 0 0 0 0 0 127 0" result="hardAlpha"/>
<feOffset dy="0.15"/>
<feGaussianBlur stdDeviation="0.0375"/>
<feComposite in2="hardAlpha" operator="arithmetic" k2="-1" k3="1"/>
<feColorMatrix type="matrix" values="0 0 0 0 0.266667 0 0 0 0 0.172549 0 0 0 0 0.25098 0 0 0 1 0"/>
<feBlend mode="normal" in2="shape" result="effect1_innerShadow_4_203"/>
<feColorMatrix in="SourceAlpha" type="matrix" values="0 0 0 0 0 0 0 0 0 0 0 0 0 0 0 0 0 0 127 0" result="hardAlpha"/>
<feOffset dy="-0.15"/>
<feGaussianBlur stdDeviation="0.0375"/>
<feComposite in2="hardAlpha" operator="arithmetic" k2="-1" k3="1"/>
<feColorMatrix type="matrix" values="0 0 0 0 0.356863 0 0 0 0 0.294118 0 0 0 0 0.305882 0 0 0 1 0"/>
<feBlend mode="normal" in2="effect1_innerShadow_4_203" result="effect2_innerShadow_4_203"/>
</filter>
<radialGradient id="paint0_radial_4_203" cx="0" cy="0" r="1" gradientUnits="userSpaceOnUse" gradientTransform="translate(255.634 32.3703) rotate(138.691) scale(58.3716)">
<stop stop-color="#FFA167"/>
<stop offset="0.554" stop-color="#FF7D31"/>
<stop offset="1" stop-color="#EC5B36"/>
</radialGradient>
<radialGradient id="paint1_radial_4_203" cx="0" cy="0" r="1" gradientUnits="userSpaceOnUse" gradientTransform="translate(237.694 37.6875) rotate(99.462) scale(60.6156 79.9375)">
<stop offset="0.466" stop-color="#D73853" stop-opacity="0"/>
<stop offset="1" stop-color="#D75B8F"/>
</radialGradient>
<radialGradient id="paint2_radial_4_203" cx="0" cy="0" r="1" gradientUnits="userSpaceOnUse" gradientTransform="translate(230.291 34.8531) rotate(90) scale(58.8981)">
<stop offset="0.895" stop-color="#D85C90" stop-opacity="0"/>
<stop offset="1" stop-color="#D85C90"/>
</radialGradient>
<radialGradient id="paint3_radial_4_203" cx="0" cy="0" r="1" gradientUnits="userSpaceOnUse" gradientTransform="translate(235.626 56.958) rotate(-144.333) scale(52.3509 61.5738)">
<stop offset="0.858" stop-color="#E07162" stop-opacity="0"/>
<stop offset="1" stop-color="#E07162"/>
</radialGradient>
<radialGradient id="paint4_radial_4_203" cx="0" cy="0" r="1" gradientUnits="userSpaceOnUse" gradientTransform="translate(160.507 99.8962) rotate(138.691) scale(46.6972)">
<stop stop-color="#FFA167"/>
<stop offset="0.554" stop-color="#FF7D31"/>
<stop offset="1" stop-color="#EC5B36"/>
</radialGradient>
<radialGradient id="paint5_radial_4_203" cx="0" cy="0" r="1" gradientUnits="userSpaceOnUse" gradientTransform="translate(146.155 104.15) rotate(99.462) scale(48.4925 63.95)">
<stop offset="0.466" stop-color="#D73853" stop-opacity="0"/>
<stop offset="1" stop-color="#D75B8F"/>
</radialGradient>
<radialGradient id="paint6_radial_4_203" cx="0" cy="0" r="1" gradientUnits="userSpaceOnUse" gradientTransform="translate(140.233 101.882) rotate(90) scale(47.1185)">
<stop offset="0.895" stop-color="#D85C90" stop-opacity="0"/>
<stop offset="1" stop-color="#D85C90"/>
</radialGradient>
<radialGradient id="paint7_radial_4_203" cx="0" cy="0" r="1" gradientUnits="userSpaceOnUse" gradientTransform="translate(144.501 119.566) rotate(-144.333) scale(41.8808 49.259)">
<stop offset="0.858" stop-color="#E07162" stop-opacity="0"/>
<stop offset="1" stop-color="#E07162"/>
</radialGradient>
<radialGradient id="paint8_radial_4_203" cx="0" cy="0" r="1" gradientUnits="userSpaceOnUse" gradientTransform="translate(85.3805 63.4222) rotate(138.691) scale(35.0229)">
<stop stop-color="#FFA167"/>
<stop offset="0.554" stop-color="#FF7D31"/>
<stop offset="1" stop-color="#EC5B36"/>
</radialGradient>
<radialGradient id="paint9_radial_4_203" cx="0" cy="0" r="1" gradientUnits="userSpaceOnUse" gradientTransform="translate(74.6166 66.6125) rotate(99.462) scale(36.3694 47.9625)">
<stop offset="0.466" stop-color="#D73853" stop-opacity="0"/>
<stop offset="1" stop-color="#D75B8F"/>
</radialGradient>
<radialGradient id="paint10_radial_4_203" cx="0" cy="0" r="1" gradientUnits="userSpaceOnUse" gradientTransform="translate(70.1747 64.9119) rotate(90) scale(35.3389)">
<stop offset="0.895" stop-color="#D85C90" stop-opacity="0"/>
<stop offset="1" stop-color="#D85C90"/>
</radialGradient>
<radialGradient id="paint11_radial_4_203" cx="0" cy="0" r="1" gradientUnits="userSpaceOnUse" gradientTransform="translate(73.376 78.1748) rotate(-144.333) scale(31.4106 36.9443)">
<stop offset="0.858" stop-color="#E07162" stop-opacity="0"/>
<stop offset="1" stop-color="#E07162"/>
</radialGradient>
<radialGradient id="paint12_radial_4_203" cx="0" cy="0" r="1" gradientUnits="userSpaceOnUse" gradientTransform="translate(30.2539 36.9481) rotate(138.691) scale(23.3486)">
<stop stop-color="#FFA167"/>
<stop offset="0.554" stop-color="#FF7D31"/>
<stop offset="1" stop-color="#EC5B36"/>
</radialGradient>
<radialGradient id="paint13_radial_4_203" cx="0" cy="0" r="1" gradientUnits="userSpaceOnUse" gradientTransform="translate(23.0779 39.075) rotate(99.462) scale(24.2462 31.975)">
<stop offset="0.466" stop-color="#D73853" stop-opacity="0"/>
<stop offset="1" stop-color="#D75B8F"/>
</radialGradient>
<radialGradient id="paint14_radial_4_203" cx="0" cy="0" r="1" gradientUnits="userSpaceOnUse" gradientTransform="translate(20.1167 37.9412) rotate(90) scale(23.5592)">
<stop offset="0.895" stop-color="#D85C90" stop-opacity="0"/>
<stop offset="1" stop-color="#D85C90"/>
</radialGradient>
<radialGradient id="paint15_radial_4_203" cx="0" cy="0" r="1" gradientUnits="userSpaceOnUse" gradientTransform="translate(22.2509 46.7832) rotate(-144.333) scale(20.9404 24.6295)">
<stop offset="0.858" stop-color="#E07162" stop-opacity="0"/>
<stop offset="1" stop-color="#E07162"/>
</radialGradient>
</defs>
</svg>
