<svg width="24" height="24" viewBox="0 0 24 24" fill="none" xmlns="http://www.w3.org/2000/svg">
<path d="M11.4785 2.99062C11.7987 2.795 12.2013 2.795 12.5215 2.99062L19.5215 7.2684C19.8187 7.45005 20 7.77331 20 8.12168V19C20 19.5523 19.5523 20 19 20H16V14C16 12.3432 14.6569 11 13 11H11C9.34315 11 8 12.3432 8 14V20H5C4.44772 20 4 19.5523 4 19V8.12168C4 7.77331 4.1813 7.45005 4.47855 7.2684L11.4785 2.99062ZM10 20V14C10 13.4477 10.4477 13 11 13H13C13.5523 13 14 13.4477 14 14V20H10ZM15 22H19C20.6569 22 22 20.6569 22 19V8.12168C22 7.07658 21.4561 6.1068 20.5644 5.56184L13.5644 1.28406C12.604 0.697185 11.396 0.697184 10.4356 1.28406L3.43565 5.56184C2.54389 6.1068 2 7.07658 2 8.12168V19C2 20.6569 3.34315 22 5 22H9H15Z" fill="#522911" fill-opacity="0.5"/>
</svg>
