<svg width="24" height="24" viewBox="0 0 24 24" fill="none" xmlns="http://www.w3.org/2000/svg">
<g clip-path="url(#clip0_13_319)">
<path d="M22.6253 1.2196C22.9184 1.45446 23.0552 1.83377 22.9795 2.20165L19.4795 19.2017C19.4168 19.506 19.2163 19.7638 18.9368 19.8996C18.6573 20.0353 18.3307 20.0334 18.0528 19.8944L10.0528 15.8944C9.77576 15.7559 9.57855 15.4968 9.51879 15.1929C9.45903 14.889 9.54347 14.5746 9.74742 14.3415L13.2474 10.3415C13.6111 9.92586 14.2429 9.88374 14.6585 10.2474C15.0741 10.6111 15.1163 11.2429 14.7526 11.6585L12.1049 14.6844L17.783 17.5235L20.626 3.7149L4.33118 11.0476L7.44721 12.6056C7.786 12.775 8 13.1212 8 13.5V19.8276L9.68077 17.4265C9.99748 16.9741 10.621 16.8641 11.0735 17.1808C11.5259 17.4975 11.6359 18.121 11.3192 18.5735L7.81923 23.5735C7.56893 23.931 7.11564 24.085 6.69936 23.9537C6.28308 23.8225 6 23.4365 6 23V14.118L1.55279 11.8944C1.20742 11.7217 0.992334 11.3657 1.00021 10.9796C1.00808 10.5936 1.23752 10.2465 1.58964 10.0881L21.5896 1.08808C21.9322 0.933944 22.3322 0.984743 22.6253 1.2196Z" fill="#522911"/>
</g>
<defs>
<clipPath id="clip0_13_319">
<rect width="24" height="24" fill="white"/>
</clipPath>
</defs>
</svg>
